<svg width="374" height="128" viewBox="0 0 374 128" fill="none" xmlns="http://www.w3.org/2000/svg">
<g clip-path="url(#clip0_258_412)">
<path d="M103.816 19.0795V8.15798H63.3211V24.4799H77.8396V32.0878H63.3211V64.0982L83.5687 73.9882L103.816 64.1071V56.204H92.849V48.5961H111.41V68.8576L103.816 72.5677L92.242 78.2229L83.5687 82.4487L74.9043 78.2229L63.3211 72.5617H63.3122V88.3857H68.7958V95.9937H50.2353V88.3857H55.7189V72.5542L55.7026 72.5632L44.1193 78.2259L35.4549 82.4517L26.7816 78.2259L15.2073 72.5706L7.61406 68.8606V48.5991H26.1746V56.207H15.2088V64.1101L35.4564 73.9911L55.7041 64.1011V32.0908H41.1856V24.4829H55.7041V8.16096H15.2088V19.0825H7.61555V0.554504H111.41V19.0825H103.816V19.0795ZM103.699 80.037C101.994 103.029 82.9112 121.083 59.517 121.083C36.2241 121.083 17.0476 103.028 15.3352 80.037H7.73457C7.75986 80.4514 7.78515 80.8568 7.8268 81.2622C10.1387 107.889 32.4528 128.682 59.517 128.682C86.6989 128.682 108.913 107.889 111.207 81.2622C111.249 80.8568 111.274 80.4514 111.3 80.037H103.699ZM15.2118 22.4482C15.2118 24.5529 13.5158 26.2522 11.4151 26.2522C9.32343 26.2522 7.61853 24.5529 7.61853 22.4482H0C0 28.7713 5.11174 33.8929 11.4151 33.8929C17.726 33.8929 22.8377 28.7698 22.8377 22.4482H15.2118ZM111.408 22.4482C111.408 24.5529 109.712 26.2522 107.611 26.2522C105.52 26.2522 103.815 24.5529 103.815 22.4482H96.1963C96.1963 28.7713 101.308 33.8929 107.611 33.8929C113.922 33.8929 119.034 28.7698 119.034 22.4482H111.408ZM152.466 122.279H154.09L148.244 109.179H146.693L140.829 122.279H142.416L143.873 118.929H150.988L152.466 122.279ZM144.49 117.545L147.422 110.807L150.392 117.545H144.49ZM167.036 109.179H161.75V122.279H166.98C170.827 122.279 173.759 119.452 173.759 115.729C173.759 112.006 170.846 109.179 167.036 109.179ZM167.054 120.894H163.244V110.564H166.999C169.931 110.564 172.248 112.791 172.248 115.748C172.248 118.686 169.969 120.894 167.054 120.894ZM180.055 109.179L185.36 122.279H186.911L192.253 109.179H190.683L186.164 120.594L181.662 109.179H180.055ZM205.477 109.142C201.648 109.142 198.622 112.043 198.622 115.729C198.622 119.415 201.648 122.335 205.477 122.335C209.287 122.335 212.313 119.415 212.313 115.729C212.313 112.043 209.287 109.142 205.477 109.142ZM205.477 110.527C208.391 110.527 210.782 112.828 210.782 115.729C210.782 118.63 208.391 120.968 205.477 120.968C202.563 120.968 200.135 118.63 200.135 115.729C200.135 112.828 202.563 110.527 205.477 110.527ZM229.797 112.137L230.694 111.052C229.442 109.873 227.705 109.142 225.912 109.142C222.12 109.142 219.094 112.043 219.094 115.711C219.094 119.417 222.083 122.335 225.856 122.335C227.668 122.335 229.423 121.568 230.711 120.351L229.797 119.36C228.769 120.333 227.369 120.933 225.93 120.933C222.978 120.933 220.607 118.594 220.607 115.711C220.607 112.81 222.978 110.509 225.93 110.509C227.369 110.507 228.788 111.126 229.797 112.137ZM248.681 122.279H250.306L244.459 109.179H242.909L237.045 122.279H238.632L240.088 118.929H247.204L248.681 122.279ZM240.706 117.545L243.638 110.807L246.608 117.545H240.706ZM267.117 112.137L268.014 111.052C266.763 109.873 265.025 109.142 263.233 109.142C259.44 109.142 256.414 112.043 256.414 115.711C256.414 119.417 259.403 122.335 263.176 122.335C264.988 122.335 266.744 121.568 268.032 120.351L267.117 119.36C266.089 120.333 264.689 120.933 263.25 120.933C260.299 120.933 257.927 118.594 257.927 115.711C257.927 112.81 260.3 110.509 263.25 110.509C264.689 110.507 266.108 111.126 267.117 112.137ZM276.326 109.179V122.279H277.82V109.179H276.326ZM297.115 122.279H298.74L292.893 109.179H291.343L285.478 122.279H287.066L288.522 118.929H295.638L297.115 122.279ZM289.139 117.545L292.072 110.807L295.041 117.545H289.139ZM161.85 23.3649L160.764 23.8687C158.793 24.8063 156.679 25.261 154.3 25.261C148.608 25.261 143.748 20.983 142.995 15.3113L142.949 14.958L142.611 14.8447C141.977 14.6346 141.364 14.4214 140.756 14.1948L142.074 10.7069C146.638 12.3972 151.152 13.4108 155.166 13.6448C156.966 13.7328 159.061 13.6761 159.931 13.6448L161.85 13.5658V23.3649ZM158.137 17.3817L157.548 17.4041C154.818 17.501 151.421 17.1283 147.992 16.3488L146.856 16.0909L147.351 17.1477C148.675 19.9694 151.402 21.5569 154.595 21.5569C155.605 21.5569 156.661 21.3974 157.735 21.0694L158.138 20.9457V17.3817H158.137ZM147.549 10.4058C148.736 7.5394 151.06 6.02793 154.3 6.02793C155.801 6.02793 157.223 6.43636 158.449 7.21445L160.526 4.10509C158.61 2.91113 156.52 2.30743 154.3 2.30743C149.477 2.30743 145.654 4.91596 143.974 9.31468C144.872 9.67093 146.07 10.0361 147.549 10.4058ZM188.714 2.23887H184.966V16.0775C184.966 19.9336 183.705 21.5077 180.613 21.5077C177.205 21.5077 176.053 20.1378 176.053 16.0775V2.23887H172.34V16.0775C172.34 22.1725 175.123 25.2624 180.613 25.2624C185.836 25.2624 188.714 22.001 188.714 16.0775V2.23887ZM207.612 25.2624C210.566 25.2297 212.926 24.2563 214.247 22.5227C215.385 21.1276 215.724 19.1853 215.213 17.0374C214.35 13.3616 210.983 12.8161 208.524 12.4181C206.511 12.0991 204.874 11.7607 204.151 10.6756C203.79 10.133 203.704 9.45778 203.894 8.66926C204.047 7.33369 205.284 6.28432 207.111 5.99962C209.748 5.57927 211.696 6.44381 213.052 8.6469L216.297 6.79708C214.195 3.27631 210.755 1.66648 206.556 2.26719C203.205 2.81572 200.761 4.98005 200.188 7.91352C199.618 10.6115 200.731 13.2558 203.022 14.6599C204.473 15.5572 206.13 15.8449 207.591 16.0968L207.811 16.1356C210.129 16.4874 211.048 16.7944 211.559 17.8215C212.014 18.8142 211.786 19.5356 211.517 19.9679C210.928 20.9129 209.534 21.46 207.59 21.5077C205.157 21.5077 203.544 20.7162 202.557 19.0258L199.29 20.7952C200.887 23.6809 203.82 25.2624 207.612 25.2624ZM245.225 2.20459H226.857V5.95937H234.15V25.2624H237.897V5.95937H245.225V2.20459ZM257.328 20.5045L255.608 25.261H251.688L259.917 2.16882H263.518L271.747 25.261H267.83L266.144 20.5045H257.328ZM258.429 17.3012H264.969L261.721 8.22803L258.429 17.3012ZM291.631 2.27315L285.553 19.2137L279.511 2.27315H275.56L283.754 25.2624H287.39L295.584 2.27315H291.631ZM325.645 13.7671C325.645 20.105 320.514 25.261 314.207 25.261C307.882 25.261 302.736 20.105 302.736 13.7671C302.736 7.44846 307.882 2.30743 314.207 2.30743C320.514 2.30743 325.645 7.44846 325.645 13.7671ZM321.931 13.7671C321.931 9.51888 318.467 6.06223 314.207 6.06223C309.929 6.06223 306.449 9.51888 306.449 13.7671C306.449 18.0346 309.929 21.5062 314.207 21.5062C318.465 21.5077 321.931 18.0346 321.931 13.7671ZM153.384 49.5441C148.349 50.5607 144.364 50.7723 141.518 50.1746L140.756 53.2765C141.425 53.4211 142.163 53.5195 142.995 53.5746L143.526 53.6104V60.9843H146.93V53.6432L147.463 53.6089C149.456 53.4822 151.659 53.1766 154.019 52.6997L153.384 49.5441ZM156.459 38.0323H143.525V48.4515C144.542 48.5886 145.584 48.5916 146.928 48.4619V41.4428H156.459V38.0323ZM178.437 52.403V49.1997H170.628V41.717H180.984V37.9965H166.916V60.9858H181.741V57.231H170.629V52.403H178.437ZM200.233 54.4332L195.941 54.4764V60.9858H192.228V37.9965H199.846C203.016 37.9965 207.603 41.0462 207.603 46.5614C207.603 49.5918 206.295 52.0512 203.921 53.4852L203.472 53.7565L207.048 60.9873H203.467L200.233 54.4332ZM195.941 50.7172H200.571C201.423 50.7172 203.855 49.954 203.855 46.5629C203.855 43.139 201.245 41.7185 199.848 41.7185H195.942V50.7172H195.941ZM234.538 60.9858V38.0323H230.825V53.8951L222.178 38.0323H218.097V60.9858H221.811V45.0738L230.424 60.9858H234.538ZM250.767 56.2293L249.046 60.9858H245.126L253.356 37.8937H256.958L265.187 60.9858H261.269L259.582 56.2293H250.767ZM251.867 53.0261H258.408L255.16 43.9529L251.867 53.0261ZM292.219 60.9858V38.0323H288.506V53.8951L279.859 38.0323H275.778V60.9858H279.492V45.0738L288.106 60.9858H292.219ZM321.043 49.4919C321.043 55.8299 315.912 60.9858 309.606 60.9858H302.709V38.0323H309.606C315.912 38.0323 321.043 43.1733 321.043 49.4919ZM317.33 49.4919C317.33 45.2437 313.865 41.7871 309.606 41.7871H306.388V57.231H309.606C313.865 57.231 317.33 53.7595 317.33 49.4919ZM343.055 52.403V49.1997H335.246V41.717H345.602V37.9965H331.535V60.9858H346.359V57.231H335.248V52.403H343.055ZM364.916 60.9858C367.869 60.953 370.228 59.9797 371.549 58.2461C372.687 56.8509 373.027 54.9087 372.515 52.7622C371.652 49.088 368.285 48.5409 365.828 48.1429C363.815 47.8239 362.177 47.4856 361.455 46.4004C361.094 45.8579 361.006 45.1826 361.196 44.3941C361.35 43.0585 362.587 42.0092 364.414 41.7245C367.053 41.3026 369.001 42.1687 370.356 44.3718L373.599 42.5219C371.497 39.0012 368.058 37.3943 363.859 37.992C360.508 38.5406 358.063 40.7049 357.491 43.6384C356.921 46.3363 358.033 48.9821 360.326 50.3848C361.778 51.2821 363.434 51.5698 364.893 51.8217L365.115 51.8605C367.433 52.2122 368.352 52.5208 368.863 53.5463C369.318 54.539 369.09 55.259 368.821 55.6912C368.232 56.6363 366.838 57.1833 364.895 57.231C362.461 57.231 360.848 56.4395 359.862 54.7492L356.593 56.5185C358.188 59.4043 361.122 60.9858 364.916 60.9858ZM160.151 90.1804C160.151 94.8191 157.655 96.7107 151.534 96.7107C148.796 96.7107 144.749 96.3559 140.756 94.7043L142.201 91.3058C146.685 93.1362 151.328 93.0855 153.744 92.8843C155.63 92.7397 156.471 92.3149 156.471 90.1789C156.471 88.9641 156.234 87.554 154.351 87.4377L148.59 87.4765V91.0583C146.997 90.8676 145.975 90.6574 144.877 90.4129V73.7557H151.877C156.212 73.7557 159.015 76.3999 159.015 80.4931C159.015 82.0314 158.705 83.4147 158.12 84.4953L157.909 84.8844L158.234 85.1855C159.488 86.3481 160.151 88.0742 160.151 90.1804ZM155.336 80.4946C155.336 79.6792 155.336 77.5119 151.878 77.5119H148.592V83.759L152.833 83.7187C155.032 83.6129 155.336 82.1059 155.336 80.4946ZM192.518 85.2168C192.518 91.5547 187.387 96.7107 181.08 96.7107C174.755 96.7107 169.609 91.5547 169.609 85.2168C169.609 78.8982 174.756 73.7571 181.08 73.7571C187.387 73.7557 192.518 78.8982 192.518 85.2168ZM188.803 85.2168C188.803 80.9686 185.338 77.5119 181.079 77.5119C176.8 77.5119 173.319 80.9686 173.319 85.2168C173.319 89.4843 176.799 92.9559 181.079 92.9559C185.338 92.9559 188.803 89.4843 188.803 85.2168ZM211.01 90.1581L206.718 90.2013V96.7107H203.004V73.7214H210.623C213.793 73.7214 218.38 76.7711 218.38 82.2863C218.38 85.3166 217.072 87.7761 214.698 89.21L214.249 89.4813L217.825 96.7122H214.244L211.01 90.1581ZM206.719 86.4405H211.348C212.2 86.4405 214.634 85.6774 214.634 82.2863C214.634 78.8624 212.021 77.4419 210.624 77.4419H206.719V86.4405ZM247.859 85.096H240.809V88.8165H244.145V92.391L243.745 92.5146C242.72 92.8336 241.595 92.9887 240.309 92.9887C236.049 92.9887 232.583 89.5022 232.583 85.2153C232.583 80.9671 236.049 77.5104 240.309 77.5104C241.81 77.5104 243.232 77.9188 244.456 78.6969L246.536 75.5831C244.651 74.3862 242.509 73.7557 240.309 73.7557C234.002 73.7557 228.871 78.8967 228.871 85.2153C228.871 91.5532 234.002 96.7092 240.309 96.7092C242.687 96.7092 244.803 96.2545 246.773 95.317L247.859 94.8132V85.096ZM269.871 88.1279V84.9246H262.062V77.4419H272.418V73.7214H258.35V96.7107H273.175V92.9559H262.063V88.1279H269.871ZM291.731 96.7107C294.684 96.6779 297.044 95.7045 298.365 93.971C299.503 92.5758 299.842 90.6335 299.33 88.4871C298.467 84.8128 295.101 84.2658 292.643 83.8678C290.63 83.5488 288.992 83.2104 288.271 82.1253C287.909 81.5827 287.821 80.9075 288.012 80.119C288.165 78.7834 289.403 77.734 291.23 77.4493C293.87 77.0275 295.816 77.8935 297.172 80.0966L300.415 78.2468C298.313 74.726 294.873 73.1192 290.675 73.7169C287.323 74.2654 284.879 76.4297 284.306 79.3632C283.736 82.0612 284.849 84.707 287.142 86.1096C288.594 87.0069 290.249 87.2946 291.709 87.5466L291.93 87.5853C294.248 87.9371 295.168 88.2456 295.678 89.2711C296.133 90.2639 295.906 90.9838 295.636 91.4161C295.047 92.3611 293.653 92.9082 291.71 92.9559C289.276 92.9559 287.664 92.1644 286.677 90.474L283.409 92.2434C285.005 95.1292 287.939 96.7107 291.731 96.7107Z" fill="black"/>
</g>
<defs>
<clipPath id="clip0_258_412">
<rect width="374" height="128" fill="white"/>
</clipPath>
</defs>
</svg>
