<svg width="103" height="35" viewBox="0 0 103 35" fill="none" xmlns="http://www.w3.org/2000/svg">
<g clip-path="url(#clip0_305_380)">
<path d="M28.5911 5.21704V2.23069H17.4387V6.69371H21.4371V8.77401H17.4387V17.5268L23.0149 20.2311L28.5911 17.5293V15.3683H25.5707V13.288H30.6823V18.8282L28.5911 19.8427L25.4036 21.3891L23.0149 22.5446L20.6287 21.3891L17.4387 19.8411H17.4362V24.168H18.9464V26.2483H13.8348V24.168H15.3451V19.839L15.3405 19.8415L12.1505 21.3899L9.76433 22.5454L7.37569 21.3899L4.18811 19.8435L2.09692 18.829V13.2888H7.20852V15.3691H4.18851V17.5301L9.76474 20.2319L15.341 17.5276V8.77482H11.3425V6.69452H15.341V2.2315H4.18851V5.21786H2.09733V0.151611H30.6823V5.21786H28.5911V5.21704ZM28.5588 21.8851C28.0892 28.172 22.8338 33.1087 16.3911 33.1087C9.97615 33.1087 4.69492 28.1716 4.22334 21.8851H2.13011C2.13707 21.9984 2.14404 22.1093 2.15551 22.2201C2.79221 29.5008 8.93752 35.1865 16.3911 35.1865C23.877 35.1865 29.9948 29.5008 30.6266 22.2201C30.6381 22.1093 30.645 21.9984 30.652 21.8851H28.5588ZM4.18933 6.13817C4.18933 6.71368 3.72226 7.17832 3.14374 7.17832C2.56768 7.17832 2.09815 6.71368 2.09815 6.13817H0C0 7.86714 1.40778 9.26759 3.14374 9.26759C4.88175 9.26759 6.28953 7.86673 6.28953 6.13817H4.18933ZM30.6819 6.13817C30.6819 6.71368 30.2148 7.17832 29.6363 7.17832C29.0603 7.17832 28.5907 6.71368 28.5907 6.13817H26.4926C26.4926 7.86714 27.9004 9.26759 29.6363 9.26759C31.3743 9.26759 32.7821 7.86673 32.7821 6.13817H30.6819ZM41.9892 33.4356H42.4366L40.8264 29.8537H40.3995L38.7844 33.4356H39.2216L39.6227 32.5197H41.5824L41.9892 33.4356ZM39.7927 32.1411L40.6003 30.2988L41.4181 32.1411H39.7927ZM46.002 29.8537H44.5462V33.4356H45.9864C47.0459 33.4356 47.8535 32.6628 47.8535 31.6446C47.8535 30.6265 47.0512 29.8537 46.002 29.8537ZM46.0069 33.0569H44.9576V30.2324H45.9917C46.7993 30.2324 47.4372 30.8413 47.4372 31.6499C47.4372 32.4533 46.8095 33.0569 46.0069 33.0569ZM49.5874 29.8537L51.0484 33.4356H51.4753L52.9466 29.8537H52.5144L51.2697 32.975L50.0299 29.8537H49.5874ZM56.5886 29.8435C55.534 29.8435 54.7006 30.6367 54.7006 31.6446C54.7006 32.6526 55.534 33.451 56.5886 33.451C57.6379 33.451 58.4712 32.6526 58.4712 31.6446C58.4712 30.6367 57.6379 29.8435 56.5886 29.8435ZM56.5886 30.2222C57.3912 30.2222 58.0496 30.8515 58.0496 31.6446C58.0496 32.4378 57.3912 33.0773 56.5886 33.0773C55.786 33.0773 55.1173 32.4378 55.1173 31.6446C55.1173 30.8515 55.786 30.2222 56.5886 30.2222ZM63.2862 30.6624L63.5333 30.3657C63.1887 30.0433 62.7101 29.8435 62.2164 29.8435C61.1721 29.8435 60.3387 30.6367 60.3387 31.6398C60.3387 32.653 61.1618 33.451 62.2009 33.451C62.6999 33.451 63.1834 33.2411 63.5382 32.9086L63.2862 32.6375C63.0031 32.9037 62.6175 33.0675 62.2214 33.0675C61.4085 33.0675 60.7554 32.428 60.7554 31.6398C60.7554 30.8466 61.4085 30.2173 62.2214 30.2173C62.6175 30.2169 63.0084 30.386 63.2862 30.6624ZM68.4871 33.4356H68.9345L67.3243 29.8537H66.8974L65.2823 33.4356H65.7195L66.1206 32.5197H68.0803L68.4871 33.4356ZM66.2906 32.1411L67.0982 30.2988L67.916 32.1411H66.2906ZM73.5643 30.6624L73.8114 30.3657C73.4668 30.0433 72.9883 29.8435 72.4945 29.8435C71.4502 29.8435 70.6168 30.6367 70.6168 31.6398C70.6168 32.653 71.4399 33.451 72.479 33.451C72.978 33.451 73.4615 33.2411 73.8163 32.9086L73.5643 32.6375C73.2812 32.9037 72.8956 33.0675 72.4995 33.0675C71.6866 33.0675 71.0335 32.428 71.0335 31.6398C71.0335 30.8466 71.687 30.2173 72.4995 30.2173C72.8956 30.2169 73.2865 30.386 73.5643 30.6624ZM76.1004 29.8537V33.4356H76.5118V29.8537H76.1004ZM81.8258 33.4356H82.2732L80.663 29.8537H80.2361L78.621 33.4356H79.0582L79.4593 32.5197H81.419L81.8258 33.4356ZM79.6293 32.1411L80.4369 30.2988L81.2547 32.1411H79.6293ZM44.5737 6.38884L44.2746 6.5266C43.7317 6.78297 43.1495 6.90728 42.4944 6.90728C40.9268 6.90728 39.5883 5.73752 39.381 4.18667L39.3683 4.09007L39.2753 4.0591C39.1007 4.00163 38.9319 3.94335 38.7644 3.88139L39.1274 2.92765C40.3844 3.38985 41.6274 3.66701 42.7329 3.731C43.2286 3.75504 43.8055 3.73956 44.0452 3.731L44.5737 3.70939V6.38884ZM43.5511 4.7528L43.3888 4.75892C42.637 4.78541 41.7016 4.68352 40.7572 4.47035L40.4442 4.39984L40.5806 4.68881C40.9453 5.46037 41.6963 5.89444 42.5755 5.89444C42.8537 5.89444 43.1446 5.85083 43.4404 5.76116L43.5515 5.72733V4.7528H43.5511ZM40.6351 2.84532C40.9621 2.06154 41.602 1.64825 42.4944 1.64825C42.9078 1.64825 43.2995 1.75993 43.6371 1.97269L44.2091 1.12247C43.6813 0.796001 43.1057 0.630928 42.4944 0.630928C41.1661 0.630928 40.1131 1.3442 39.6506 2.54697C39.898 2.64438 40.2279 2.74424 40.6351 2.84532ZM51.9719 0.612181H50.9399V4.39617C50.9399 5.45058 50.5924 5.88099 49.741 5.88099C48.8024 5.88099 48.4852 5.50642 48.4852 4.39617V0.612181H47.4626V4.39617C47.4626 6.06277 48.2292 6.90769 49.741 6.90769C51.1795 6.90769 51.9719 6.0159 51.9719 4.39617V0.612181ZM57.1765 6.90769C57.9902 6.89872 58.64 6.63257 59.0039 6.15855C59.3173 5.77706 59.4107 5.24598 59.2698 4.65865C59.0321 3.65356 58.1049 3.50438 57.4277 3.39556C56.8733 3.30834 56.4226 3.21581 56.2235 2.91909C56.124 2.77073 56.1002 2.5861 56.1526 2.37049C56.1949 2.0053 56.5353 1.71836 57.0385 1.64051C57.7649 1.52557 58.3012 1.76197 58.6749 2.36437L59.5684 1.85856C58.9895 0.895856 58.0423 0.455667 56.8856 0.619922C55.963 0.769913 55.2898 1.36172 55.1321 2.16384C54.9751 2.90157 55.2816 3.62462 55.9126 4.00856C56.312 4.25392 56.7685 4.33259 57.1708 4.40147L57.2314 4.41207C57.8698 4.50825 58.123 4.59222 58.2635 4.87304C58.3889 5.14449 58.3262 5.34176 58.252 5.45996C58.0898 5.71836 57.7059 5.86795 57.1704 5.88099C56.5005 5.88099 56.0564 5.66456 55.7843 5.20237L54.8846 5.68617C55.3246 6.47524 56.1322 6.90769 57.1765 6.90769ZM67.5354 0.602807H62.4766V1.6295H64.485V6.90769H65.5171V1.6295H67.5354V0.602807ZM70.8684 5.60669L70.3948 6.90728H69.3151L71.5813 0.593026H72.5732L74.8393 6.90728H73.7606L73.2964 5.60669H70.8684ZM71.1716 4.73079H72.9727L72.0783 2.24984L71.1716 4.73079ZM80.3156 0.621554L78.6415 5.25372L76.9776 0.621554H75.8894L78.1461 6.90769H79.1475L81.4042 0.621554H80.3156ZM89.6829 3.76442C89.6829 5.49746 88.2698 6.90728 86.533 6.90728C84.7909 6.90728 83.3737 5.49746 83.3737 3.76442C83.3737 2.03668 84.7909 0.630928 86.533 0.630928C88.2698 0.630928 89.6829 2.03668 89.6829 3.76442ZM88.6603 3.76442C88.6603 2.60281 87.706 1.65763 86.533 1.65763C85.3547 1.65763 84.3963 2.60281 84.3963 3.76442C84.3963 4.93132 85.3547 5.88058 86.533 5.88058C87.7056 5.88099 88.6603 4.93132 88.6603 3.76442ZM42.242 13.5472C40.8555 13.8252 39.7579 13.883 38.9741 13.7196L38.7644 14.5678C38.9487 14.6073 39.1519 14.6342 39.381 14.6493L39.5272 14.6591V16.6754H40.4647V14.668L40.6113 14.6587C41.1604 14.624 41.7672 14.5405 42.417 14.41L42.242 13.5472ZM43.0889 10.3994H39.5268V13.2484C39.8071 13.2859 40.0939 13.2868 40.4643 13.2513V11.332H43.0889V10.3994ZM49.1416 14.3289V13.453H46.991V11.407H49.843V10.3897H45.9688V16.6758H50.0516V15.6491H46.9914V14.3289H49.1416ZM55.1443 14.8841L53.9623 14.8959V16.6758H52.9397V10.3897H55.0378C55.9109 10.3897 57.1741 11.2236 57.1741 12.7316C57.1741 13.5602 56.8139 14.2327 56.16 14.6248L56.0363 14.699L57.0213 16.6762H56.0351L55.1443 14.8841ZM53.9623 13.868H55.2374C55.4721 13.868 56.142 13.6593 56.142 12.732C56.142 11.7958 55.423 11.4074 55.0382 11.4074H53.9627V13.868H53.9623ZM64.592 16.6758V10.3994H63.5693V14.7369L61.188 10.3994H60.0642V16.6758H61.0869V12.3249L63.4591 16.6758H64.592ZM69.0615 15.3752L68.5875 16.6758H67.5079L69.7745 10.3615H70.7664L73.0329 16.6758H71.9537L71.4891 15.3752H69.0615ZM69.3643 14.4993H71.1658L70.2714 12.0184L69.3643 14.4993ZM80.4774 16.6758V10.3994H79.4548V14.7369L77.0735 10.3994H75.9497V16.6758H76.9723V12.3249L79.3446 16.6758H80.4774ZM88.4156 13.5329C88.4156 15.266 87.0025 16.6758 85.2658 16.6758H83.3663V10.3994H85.2658C87.0025 10.3994 88.4156 11.8052 88.4156 13.5329ZM87.393 13.5329C87.393 12.3713 86.4388 11.4261 85.2658 11.4261H84.3796V15.6491H85.2658C86.4388 15.6491 87.393 14.6998 87.393 13.5329ZM94.4778 14.3289V13.453H92.3272V11.407H95.1792V10.3897H91.305V16.6758H95.3878V15.6491H92.3276V14.3289H94.4778ZM100.498 16.6758C101.311 16.6668 101.961 16.4007 102.325 15.9267C102.639 15.5452 102.732 15.0141 102.591 14.4272C102.353 13.4225 101.426 13.2729 100.749 13.1641C100.195 13.0768 99.7439 12.9843 99.5452 12.6876C99.4456 12.5392 99.4214 12.3546 99.4739 12.139C99.5161 11.7738 99.8569 11.4869 100.36 11.409C101.087 11.2937 101.623 11.5305 101.996 12.1329L102.89 11.6271C102.311 10.6644 101.363 10.225 100.207 10.3884C99.2841 10.5384 98.611 11.1302 98.4533 11.9324C98.2963 12.6701 98.6028 13.3935 99.2342 13.7771C99.634 14.0224 100.09 14.1011 100.492 14.17L100.553 14.1806C101.191 14.2768 101.445 14.3611 101.585 14.6416C101.71 14.913 101.648 15.1099 101.574 15.2281C101.411 15.4865 101.028 15.6361 100.492 15.6491C99.8221 15.6491 99.378 15.4327 99.1063 14.9705L98.2062 15.4543C98.6454 16.2434 99.4534 16.6758 100.498 16.6758ZM44.1058 24.6587C44.1058 25.9271 43.4183 26.4443 41.7327 26.4443C40.9785 26.4443 39.864 26.3473 38.7644 25.8957L39.1622 24.9664C40.3971 25.4669 41.6758 25.4531 42.3412 25.398C42.8607 25.3585 43.0922 25.2423 43.0922 24.6583C43.0922 24.3261 43.027 23.9405 42.5083 23.9087L40.9219 23.9193V24.8988C40.4831 24.8466 40.2016 24.7891 39.8993 24.7223V20.1676H41.827C43.0209 20.1676 43.7928 20.8906 43.7928 22.0098C43.7928 22.4304 43.7076 22.8087 43.5465 23.1042L43.4884 23.2106L43.5777 23.2929C43.9231 23.6108 44.1058 24.0828 44.1058 24.6587ZM42.7796 22.0102C42.7796 21.7873 42.7796 21.1947 41.8274 21.1947H40.9223V22.9028L42.0904 22.8918C42.696 22.8629 42.7796 22.4508 42.7796 22.0102ZM53.0196 23.3014C53.0196 25.0345 51.6065 26.4443 49.8697 26.4443C48.1276 26.4443 46.7104 25.0345 46.7104 23.3014C46.7104 21.5737 48.128 20.168 49.8697 20.168C51.6065 20.1676 53.0196 21.5737 53.0196 23.3014ZM51.9965 23.3014C51.9965 22.1398 51.0423 21.1947 49.8693 21.1947C48.6909 21.1947 47.7322 22.1398 47.7322 23.3014C47.7322 24.4683 48.6905 25.4176 49.8693 25.4176C51.0423 25.4176 51.9965 24.4683 51.9965 23.3014ZM58.1123 24.6526L56.9303 24.6644V26.4443H55.9076V20.1582H58.0058C58.8789 20.1582 60.142 20.9921 60.142 22.5001C60.142 23.3288 59.7819 24.0013 59.128 24.3934L59.0043 24.4675L59.9892 26.4447H59.003L58.1123 24.6526ZM56.9307 23.6361H58.2053C58.4401 23.6361 59.1104 23.4274 59.1104 22.5001C59.1104 21.5639 58.3909 21.1755 58.0062 21.1755H56.9307V23.6361ZM68.2605 23.2684H66.3189V24.2858H67.2379V25.2631L67.1277 25.297C66.8454 25.3842 66.5356 25.4266 66.1812 25.4266C65.0082 25.4266 64.0536 24.4732 64.0536 23.301C64.0536 22.1394 65.0082 21.1942 66.1812 21.1942C66.5946 21.1942 66.9863 21.3059 67.3235 21.5187L67.8963 20.6672C67.3772 20.34 66.7872 20.1676 66.1812 20.1676C64.4445 20.1676 63.0314 21.5733 63.0314 23.301C63.0314 25.0341 64.4445 26.4439 66.1812 26.4439C66.8364 26.4439 67.419 26.3196 67.9615 26.0632L68.2605 25.9255V23.2684ZM74.3227 24.0975V23.2216H72.1721V21.1755H75.0241V20.1582H71.1499V26.4443H75.2327V25.4176H72.1725V24.0975H74.3227ZM80.343 26.4443C81.1563 26.4353 81.8061 26.1692 82.17 25.6952C82.4834 25.3137 82.5768 24.7826 82.4359 24.1957C82.1982 23.191 81.271 23.0414 80.5942 22.9326C80.0398 22.8454 79.5888 22.7528 79.39 22.4561C79.2905 22.3078 79.2663 22.1231 79.3188 21.9075C79.361 21.5423 79.7018 21.2554 80.205 21.1775C80.9322 21.0622 81.4681 21.299 81.8414 21.9014L82.7345 21.3956C82.1556 20.4329 81.2084 19.9935 80.0521 20.157C79.1291 20.3069 78.4559 20.8987 78.2981 21.7009C78.1412 22.4386 78.4477 23.162 79.0791 23.5456C79.479 23.7909 79.935 23.8696 80.3369 23.9385L80.3979 23.9491C81.0363 24.0453 81.2895 24.1296 81.43 24.4101C81.5554 24.6815 81.4927 24.8784 81.4185 24.9966C81.2563 25.255 80.8724 25.4046 80.3373 25.4176C79.667 25.4176 79.2229 25.2012 78.9512 24.739L78.0511 25.2228C78.4907 26.0119 79.2987 26.4443 80.343 26.4443Z" fill="#C99E66"/>
</g>
<defs>
<clipPath id="clip0_305_380">
<rect width="103" height="35" fill="white"/>
</clipPath>
</defs>
</svg>
