<svg width="202" height="69" viewBox="0 0 202 69" fill="none" xmlns="http://www.w3.org/2000/svg">
<g clip-path="url(#clip0_258_604)">
<path d="M56.0719 10.285V4.39758H34.2002V13.1961H42.0417V17.2973H34.2002V34.5528L45.136 39.8842L56.0719 34.5576V30.2974H50.1484V26.1962H60.1731V37.1185L56.0719 39.1184L49.8206 42.167L45.136 44.4449L40.4564 42.167L34.2002 39.1152H34.1953V47.6453H37.1571V51.7465H27.1324V47.6453H30.0942V39.1112L30.0853 39.116L23.8291 42.1686L19.1495 44.4465L14.4649 42.1686L8.21357 39.12L4.11241 37.1201V26.1978H14.1371V30.299H8.21437V34.5592L19.1503 39.8858L30.0861 34.5544V17.2989H22.2446V13.1977H30.0861V4.39919H8.21437V10.2866H4.11321V0.298828H60.1731V10.2866H56.0719V10.285ZM56.0085 43.1448C55.0876 55.5391 44.7809 65.2713 32.1456 65.2713C19.5649 65.2713 9.20752 55.5383 8.28267 43.1448H4.17749C4.19115 43.3682 4.20481 43.5868 4.22731 43.8053C5.47598 58.1586 17.528 69.3677 32.1456 69.3677C46.8267 69.3677 58.8248 58.1586 60.0638 43.8053C60.0863 43.5868 60.1 43.3682 60.1136 43.1448H56.0085ZM8.21598 12.1009C8.21598 13.2355 7.29996 14.1515 6.1654 14.1515C5.03565 14.1515 4.11482 13.2355 4.11482 12.1009H0C0 15.5094 2.76089 18.2703 6.1654 18.2703C9.57392 18.2703 12.3348 15.5086 12.3348 12.1009H8.21598ZM60.1723 12.1009C60.1723 13.2355 59.2563 14.1515 58.1217 14.1515C56.992 14.1515 56.0711 13.2355 56.0711 12.1009H51.9563C51.9563 15.5094 54.7172 18.2703 58.1217 18.2703C61.5302 18.2703 64.2911 15.5086 64.2911 12.1009H60.1723ZM82.3478 65.9158H83.2252L80.0674 58.8544H79.2301L76.0627 65.9158H76.92L77.7067 64.1103H81.5499L82.3478 65.9158ZM78.0401 63.3638L79.6239 59.7319L81.2277 63.3638H78.0401ZM90.2175 58.8544H87.3626V65.9158H90.1869C92.2648 65.9158 93.8486 64.3923 93.8486 62.3851C93.8486 60.3779 92.2753 58.8544 90.2175 58.8544ZM90.2271 65.1693H88.1693V59.6009H90.1974C91.7811 59.6009 93.0322 60.8014 93.0322 62.3955C93.0322 63.9793 91.8012 65.1693 90.2271 65.1693ZM97.249 58.8544L100.114 65.9158H100.952L103.837 58.8544H102.989L100.548 65.0078L98.1168 58.8544H97.249ZM110.98 58.8343C108.911 58.8343 107.277 60.398 107.277 62.3851C107.277 64.3722 108.911 65.9463 110.98 65.9463C113.037 65.9463 114.672 64.3722 114.672 62.3851C114.672 60.398 113.037 58.8343 110.98 58.8343ZM110.98 59.5808C112.554 59.5808 113.845 60.8214 113.845 62.3851C113.845 63.9487 112.554 65.2095 110.98 65.2095C109.405 65.2095 108.094 63.9487 108.094 62.3851C108.094 60.8214 109.405 59.5808 110.98 59.5808ZM124.115 60.4486L124.599 59.8637C123.923 59.2281 122.985 58.8343 122.017 58.8343C119.969 58.8343 118.334 60.398 118.334 62.3755C118.334 64.373 119.948 65.9463 121.986 65.9463C122.965 65.9463 123.913 65.5325 124.609 64.8768L124.115 64.3425C123.559 64.8672 122.803 65.1902 122.026 65.1902C120.432 65.1902 119.151 63.9295 119.151 62.3755C119.151 60.8118 120.432 59.5712 122.026 59.5712C122.803 59.5704 123.57 59.9038 124.115 60.4486ZM134.315 65.9158H135.192L132.034 58.8544H131.197L128.029 65.9158H128.887L129.673 64.1103H133.517L134.315 65.9158ZM130.007 63.3638L131.591 59.7319L133.194 63.3638H130.007ZM144.272 60.4486L144.756 59.8637C144.081 59.2281 143.142 58.8343 142.174 58.8343C140.126 58.8343 138.491 60.398 138.491 62.3755C138.491 64.373 140.105 65.9463 142.143 65.9463C143.122 65.9463 144.07 65.5325 144.766 64.8768L144.272 64.3425C143.717 64.8672 142.96 65.1902 142.183 65.1902C140.589 65.1902 139.308 63.9295 139.308 62.3755C139.308 60.8118 140.59 59.5712 142.183 59.5712C142.96 59.5704 143.727 59.9038 144.272 60.4486ZM149.246 58.8544V65.9158H150.052V58.8544H149.246ZM160.474 65.9158H161.351L158.194 58.8544H157.356L154.189 65.9158H155.046L155.833 64.1103H159.676L160.474 65.9158ZM156.166 63.3638L157.75 59.7319L159.354 63.3638H156.166ZM87.4164 12.5951L86.8298 12.8667C85.7652 13.3721 84.6234 13.6171 83.3385 13.6171C80.2643 13.6171 77.6392 11.311 77.2326 8.25366L77.2077 8.06323L77.0253 8.00216C76.683 7.88886 76.3519 7.77396 76.0233 7.65183L76.7352 5.77159C79.2004 6.68278 81.6383 7.22918 83.8062 7.35533C84.7784 7.40274 85.9098 7.37221 86.3798 7.35533L87.4164 7.31274V12.5951ZM85.4108 9.36975L85.0926 9.3818C83.6182 9.43403 81.7837 9.23316 79.9316 8.81292L79.3177 8.6739L79.5853 9.2436C80.3004 10.7647 81.7733 11.6204 83.4976 11.6204C84.0432 11.6204 84.6137 11.5344 85.1939 11.3577L85.4116 11.291V9.36975H85.4108ZM79.6922 5.60929C80.3334 4.06412 81.5885 3.24935 83.3385 3.24935C84.1493 3.24935 84.9174 3.46952 85.5795 3.88895L86.7013 2.21281C85.6663 1.5692 84.5374 1.24377 83.3385 1.24377C80.7335 1.24377 78.6685 2.64992 77.7613 5.02111C78.2466 5.21315 78.8935 5.41002 79.6922 5.60929ZM101.926 1.20681H99.9015V8.66667C99.9015 10.7454 99.2201 11.5939 97.5504 11.5939C95.7095 11.5939 95.0876 10.8555 95.0876 8.66667V1.20681H93.082V8.66667C93.082 11.9523 94.5854 13.618 97.5504 13.618C100.372 13.618 101.926 11.8599 101.926 8.66667V1.20681V1.20681ZM112.133 13.618C113.728 13.6003 115.003 13.0756 115.716 12.1411C116.331 11.389 116.514 10.342 116.238 9.18414C115.772 7.20266 113.953 6.90858 112.625 6.69404C111.538 6.52209 110.654 6.33968 110.264 5.75472C110.068 5.46224 110.022 5.09825 110.125 4.67319C110.207 3.95324 110.875 3.38756 111.862 3.23408C113.286 3.00749 114.338 3.47353 115.071 4.66113L116.824 3.66396C115.688 1.76605 113.83 0.898252 111.562 1.22207C109.753 1.51776 108.432 2.68447 108.123 4.2658C107.815 5.72017 108.416 7.14561 109.654 7.90252C110.437 8.38624 111.332 8.54132 112.121 8.67712L112.24 8.69801C113.492 8.88764 113.989 9.05317 114.264 9.60679C114.51 10.1419 114.387 10.5308 114.242 10.7639C113.924 11.2733 113.171 11.5682 112.121 11.5939C110.807 11.5939 109.936 11.1672 109.402 10.256L107.638 11.2098C108.501 12.7654 110.084 13.618 112.133 13.618ZM132.448 1.18833H122.527V3.21239H126.466V13.618H128.49V3.21239H132.448V1.18833V1.18833ZM138.985 11.0531L138.056 13.6171H135.938L140.383 1.16904H142.328L146.772 13.6171H144.657L143.746 11.0531H138.985ZM139.579 9.32636H143.111L141.357 4.43534L139.579 9.32636ZM157.512 1.22529L154.229 10.3573L150.966 1.22529H148.832L153.257 13.618H155.221L159.647 1.22529H157.512ZM175.883 7.42122C175.883 10.8378 173.112 13.6171 169.706 13.6171C166.289 13.6171 163.51 10.8378 163.51 7.42122C163.51 4.0151 166.289 1.24377 169.706 1.24377C173.112 1.24377 175.883 4.0151 175.883 7.42122ZM173.877 7.42122C173.877 5.13119 172.006 3.26783 169.706 3.26783C167.395 3.26783 165.515 5.13119 165.515 7.42122C165.515 9.72169 167.395 11.5931 169.706 11.5931C172.005 11.5939 173.877 9.72169 173.877 7.42122ZM82.8436 26.7073C80.1245 27.2553 77.9718 27.3694 76.4347 27.0472L76.0233 28.7193C76.3849 28.7972 76.7834 28.8503 77.2326 28.88L77.5194 28.8993V32.8743H79.3579V28.9169L79.6456 28.8985C80.7223 28.8302 81.9123 28.6654 83.1867 28.4083L82.8436 26.7073ZM84.5044 20.5017H77.5186V26.1183C78.0683 26.1922 78.6307 26.1938 79.3571 26.1239V22.3401H84.5044V20.5017ZM96.3748 28.2484V26.5217H92.1571V22.488H97.7504V20.4824H90.1524V32.8751H98.1594V30.851H92.158V28.2484H96.3748V28.2484ZM108.147 29.3428L105.829 29.3661V32.8751H103.823V20.4824H107.938C109.651 20.4824 112.128 22.1264 112.128 25.0994C112.128 26.733 111.422 28.0588 110.139 28.8318L109.896 28.978L111.828 32.8759H109.894L108.147 29.3428ZM105.829 27.3396H108.33C108.79 27.3396 110.104 26.9282 110.104 25.1002C110.104 23.2545 108.694 22.4888 107.939 22.4888H105.83V27.3396H105.829ZM126.675 32.8751V20.5017H124.67V29.0527L120 20.5017H117.796V32.8751H119.801V24.2975L124.454 32.8751H126.675ZM135.441 30.311L134.511 32.8751H132.394L136.839 20.427H138.785L143.23 32.8751H141.113L140.202 30.311H135.441ZM136.035 28.5843H139.568L137.814 23.6933L136.035 28.5843ZM157.83 32.8751V20.5017H155.824V29.0527L151.154 20.5017H148.95V32.8751H150.955V24.2975L155.608 32.8751H157.83ZM173.398 26.6791C173.398 30.0957 170.626 32.8751 167.22 32.8751H163.495V20.5017H167.22C170.626 20.5017 173.398 23.273 173.398 26.6791ZM171.392 26.6791C171.392 24.3891 169.521 22.5258 167.22 22.5258H165.482V30.851H167.22C169.521 30.851 171.392 28.9796 171.392 26.6791ZM185.287 28.2484V26.5217H181.069V22.488H186.662V20.4824H179.064V32.8751H187.071V30.851H181.07V28.2484H185.287V28.2484ZM197.093 32.8751C198.688 32.8574 199.963 32.3327 200.676 31.3982C201.291 30.6461 201.474 29.5991 201.198 28.4421C200.732 26.4614 198.913 26.1665 197.586 25.952C196.499 25.78 195.614 25.5976 195.224 25.0127C195.029 24.7202 194.982 24.3562 195.085 23.9311C195.167 23.2112 195.836 22.6455 196.823 22.492C198.248 22.2646 199.3 22.7315 200.032 23.9191L201.784 22.9219C200.648 21.024 198.79 20.1578 196.523 20.48C194.713 20.7757 193.392 21.9424 193.083 23.5237C192.775 24.9781 193.376 26.4043 194.615 27.1605C195.399 27.6442 196.293 27.7993 197.081 27.935L197.201 27.9559C198.453 28.1456 198.95 28.3119 199.225 28.8647C199.471 29.3999 199.348 29.788 199.203 30.021C198.884 30.5304 198.132 30.8253 197.082 30.851C195.768 30.851 194.897 30.4243 194.364 29.5132L192.599 30.4669C193.46 32.0225 195.044 32.8751 197.093 32.8751ZM86.4988 48.6128C86.4988 51.1133 85.1505 52.133 81.8448 52.133C80.3655 52.133 78.1799 51.9418 76.0233 51.0515L76.8035 49.2194C79.2253 50.2062 81.7331 50.1788 83.038 50.0704C84.0569 49.9924 84.5109 49.7634 84.5109 48.612C84.5109 47.9571 84.3831 47.197 83.3659 47.1343L80.2546 47.1552V49.0861C79.3941 48.9832 78.842 48.8699 78.249 48.7381V39.7588H82.0296C84.3711 39.7588 85.8849 41.1843 85.8849 43.3907C85.8849 44.22 85.7177 44.9656 85.402 45.5482L85.2879 45.7579L85.463 45.9202C86.1404 46.5469 86.4988 47.4774 86.4988 48.6128ZM83.8978 43.3915C83.8978 42.952 83.8978 41.7837 82.0304 41.7837H80.2554V45.1512L82.5463 45.1295C83.7339 45.0725 83.8978 44.2601 83.8978 43.3915ZM103.98 45.9371C103.98 49.3536 101.209 52.133 97.8027 52.133C94.3861 52.133 91.6067 49.3536 91.6067 45.9371C91.6067 42.531 94.3869 39.7596 97.8027 39.7596C101.209 39.7588 103.98 42.531 103.98 45.9371ZM101.974 45.9371C101.974 43.647 100.102 41.7837 97.8019 41.7837C95.4909 41.7837 93.6107 43.647 93.6107 45.9371C93.6107 48.2375 95.4901 50.1089 97.8019 50.1089C100.102 50.1089 101.974 48.2375 101.974 45.9371ZM113.968 48.6007L111.65 48.624V52.133H109.644V39.7403H113.759C115.471 39.7403 117.948 41.3843 117.948 44.3574C117.948 45.9909 117.242 47.3167 115.96 48.0897L115.717 48.2359L117.649 52.1338H115.715L113.968 48.6007ZM111.65 46.5968H114.15C114.611 46.5968 115.925 46.1854 115.925 44.3574C115.925 42.5117 114.514 41.7459 113.76 41.7459H111.65V46.5968V46.5968ZM133.87 45.872H130.062V47.8776H131.865V49.8044L131.648 49.8711C131.095 50.043 130.487 50.1266 129.792 50.1266C127.492 50.1266 125.62 48.2472 125.62 45.9363C125.62 43.6462 127.492 41.7829 129.792 41.7829C130.603 41.7829 131.371 42.003 132.033 42.4225L133.156 40.7439C132.138 40.0987 130.981 39.7588 129.792 39.7588C126.386 39.7588 123.615 42.5301 123.615 45.9363C123.615 49.3528 126.386 52.1322 129.792 52.1322C131.077 52.1322 132.22 51.8871 133.284 51.3817L133.87 51.1101V45.872ZM145.759 47.5063V45.7796H141.541V41.7459H147.135V39.7403H139.537V52.133H147.544V50.1089H141.542V47.5063H145.759V47.5063ZM157.566 52.133C159.161 52.1153 160.435 51.5906 161.149 50.6561C161.764 49.904 161.947 48.857 161.67 47.7C161.204 45.7193 159.386 45.4244 158.059 45.2099C156.971 45.0379 156.087 44.8555 155.697 44.2706C155.502 43.9781 155.454 43.6141 155.557 43.189C155.64 42.4691 156.308 41.9034 157.295 41.7499C158.721 41.5225 159.772 41.9894 160.504 43.177L162.256 42.1798C161.121 40.2819 159.263 39.4157 156.995 39.7379C155.185 40.0336 153.865 41.2003 153.556 42.7816C153.248 44.236 153.849 45.6623 155.087 46.4184C155.871 46.9021 156.766 47.0572 157.554 47.193L157.674 47.2139C158.926 47.4035 159.422 47.5698 159.698 48.1226C159.944 48.6578 159.821 49.0459 159.675 49.2789C159.357 49.7883 158.604 50.0832 157.555 50.1089C156.24 50.1089 155.369 49.6823 154.836 48.7711L153.071 49.7249C153.933 51.2805 155.518 52.133 157.566 52.133Z" fill="#9C6216"/>
</g>
<defs>
<clipPath id="clip0_258_604">
<rect width="202" height="69" fill="white"/>
</clipPath>
</defs>
</svg>
