<svg width="100" height="79" viewBox="0 0 100 79" fill="none" xmlns="http://www.w3.org/2000/svg">
<path d="M71.655 40.464C85.705 44.117 95.259 49.737 95.259 62.663C95.259 71.655 88.515 78.961 77.556 78.961C65.192 78.961 57.605 69.407 57.605 53.671C57.605 36.53 66.316 11.802 94.697 0L99.193 7.02499C80.085 16.298 72.779 30.348 71.655 40.464ZM13.769 40.464C27.819 44.117 37.373 49.737 37.373 62.663C37.373 71.655 30.629 78.961 19.67 78.961C7.30599 78.961 0 69.407 0 53.671C0 36.53 8.71101 11.802 36.811 0L41.307 7.02499C22.199 16.298 15.174 30.348 13.769 40.464Z" fill="#C1C1C4"/>
</svg>
