<svg width="46" height="38" viewBox="0 0 46 38" fill="none" xmlns="http://www.w3.org/2000/svg">
<path d="M33 37V33C33 30.8783 32.1571 28.8434 30.6569 27.3431C29.1566 25.8429 27.1217 25 25 25H9C6.87827 25 4.84344 25.8429 3.34315 27.3431C1.84285 28.8434 1 30.8783 1 33V37M45 37V33C44.9987 31.2275 44.4087 29.5055 43.3227 28.1046C42.2368 26.7037 40.7163 25.7031 39 25.26M31 1.26C32.7208 1.7006 34.2461 2.7014 35.3353 4.10462C36.4245 5.50784 37.0157 7.23366 37.0157 9.01C37.0157 10.7863 36.4245 12.5122 35.3353 13.9154C34.2461 15.3186 32.7208 16.3194 31 16.76M25 9C25 13.4183 21.4183 17 17 17C12.5817 17 9 13.4183 9 9C9 4.58172 12.5817 1 17 1C21.4183 1 25 4.58172 25 9Z" stroke="#101828" stroke-width="2" stroke-linecap="round" stroke-linejoin="round"/>
</svg>
