<svg width="60" height="60" viewBox="0 0 60 60" fill="none" xmlns="http://www.w3.org/2000/svg">
<path d="M1.28047 29.6409C1.27906 34.6821 2.60656 39.6044 5.13078 43.943L1.03906 58.7667L16.3278 54.7891C20.5565 57.0733 25.2944 58.2702 30.1091 58.2705H30.1217C46.0159 58.2705 58.9541 45.4372 58.9609 29.6635C58.9639 22.02 55.9667 14.8325 50.5213 9.42511C45.0767 4.01813 37.8357 1.03883 30.1205 1.03534C14.2245 1.03534 1.28727 13.8679 1.2807 29.6409" fill="#9C6216"/>
<path d="M0.250781 29.6316C0.249141 34.8542 1.62422 39.9526 4.23844 44.4465L0 59.8016L15.837 55.6814C20.2005 58.0421 25.1135 59.2867 30.1127 59.2886H30.1256C46.59 59.2886 59.993 45.9937 60 29.6553C60.0028 21.7372 56.8978 14.2914 51.2578 8.69023C45.6171 3.08977 38.1171 0.00325581 30.1256 0C13.6584 0 0.257344 13.293 0.250781 29.6316ZM9.68203 43.6726L9.0907 42.7412C6.60492 38.8193 5.29289 34.2872 5.29477 29.6335C5.30016 16.0533 16.4386 5.00465 30.135 5.00465C36.7678 5.00744 43.0012 7.57302 47.6897 12.2279C52.3779 16.8833 54.9577 23.0716 54.956 29.6535C54.9499 43.2337 43.8112 54.2837 30.1256 54.2837H30.1158C25.6596 54.2814 21.2892 53.094 17.4778 50.85L16.5708 50.3163L7.17281 52.7612L9.68203 43.6723V43.6726Z" fill="url(#paint0_linear_102_1035)"/>
<path d="M22.6586 17.2437C22.0994 16.0105 21.5109 15.9856 20.9791 15.9639C20.5436 15.9453 20.0458 15.9467 19.5484 15.9467C19.0506 15.9467 18.2418 16.1326 17.5581 16.8733C16.8737 17.6146 14.9453 19.4063 14.9453 23.0502C14.9453 26.6944 17.6202 30.216 17.9931 30.7107C18.3665 31.2044 23.1571 38.9216 30.7443 41.8905C37.0499 44.3577 38.3331 43.867 39.7016 43.7433C41.0704 43.62 44.1182 41.9521 44.74 40.2226C45.3623 38.4933 45.3623 37.0109 45.1757 36.7012C44.9891 36.3926 44.4913 36.2072 43.7448 35.837C42.9981 35.4665 39.3283 33.6746 38.6441 33.4274C37.9598 33.1805 37.4622 33.0572 36.9644 33.7988C36.4666 34.5393 35.0371 36.2072 34.6014 36.7012C34.1662 37.1963 33.7305 37.2579 32.9842 36.8874C32.2373 36.5158 29.8333 35.7346 26.9812 33.2116C24.7621 31.2484 23.264 28.8239 22.8285 28.0823C22.393 27.3419 22.7819 26.9405 23.1562 26.5714C23.4916 26.2395 23.9029 25.7065 24.2765 25.2742C24.6487 24.8416 24.7729 24.533 25.0218 24.0391C25.2709 23.5446 25.1463 23.1121 24.9599 22.7416C24.7729 22.3712 23.3223 18.7081 22.6586 17.2437Z" fill="#F0F0F0"/>
<defs>
<linearGradient id="paint0_linear_102_1035" x1="30" y1="59.8016" x2="30" y2="0" gradientUnits="userSpaceOnUse">
<stop stop-color="#F9F9F9"/>
<stop offset="1" stop-color="white"/>
</linearGradient>
</defs>
</svg>
